<svg width="181" height="63" viewBox="0 0 181 63" fill="none" xmlns="http://www.w3.org/2000/svg">
<path fill-rule="evenodd" clip-rule="evenodd" d="M175.032 3.37692C175.032 1.70076 176.378 0.409302 177.999 0.409302C179.62 0.409302 180.967 1.67328 180.967 3.37692C180.967 5.02559 179.62 6.34454 177.999 6.34454C176.378 6.34454 175.032 5.02559 175.032 3.37692ZM175.636 3.37692C175.636 4.69586 176.68 5.7675 177.999 5.7675C179.318 5.7675 180.362 4.69586 180.362 3.37692C180.362 2.00302 179.318 0.98634 177.999 0.98634C176.68 0.98634 175.636 2.0305 175.636 3.37692Z" fill="#26447A"/>
<path fill-rule="evenodd" clip-rule="evenodd" d="M176.845 4.91997V2.19966C176.845 1.92488 177.01 1.76001 177.312 1.76001H178.302C178.796 1.76001 179.263 2.08974 179.263 2.69426C179.263 3.13391 179.044 3.43617 178.714 3.57356L179.401 4.91997H178.769L178.164 3.68347H177.422V4.91997H176.845ZM177.422 3.18887H178.219C178.494 3.18887 178.686 2.99652 178.686 2.72174C178.686 2.41948 178.494 2.25461 178.247 2.25461H177.422V3.18887Z" fill="#26447A"/>
<path d="M66.356 6.62302C72.5935 6.62302 73.3629 13.0254 73.3629 13.0254L80.7545 11.2943C80.727 11.1019 79.4355 0.0557861 66.356 0.0557861C58.2775 0.0557861 50.7485 4.97434 50.7485 17.5867C50.7485 30.1167 58.6897 34.8978 66.9056 34.8978C72.5385 34.8978 76.4679 33.0293 77.8418 32.2599C79.6279 31.2158 80.6171 30.1991 80.6171 28.0558V20.3345C80.6171 18.3286 79.2981 17.0921 77.0999 17.0921H66.9605V22.8075H73.3079V27.2315C73.3079 27.2315 71.0822 28.7428 67.1529 28.7428C62.9762 28.7428 58.6622 26.2148 58.6622 17.5867C58.6622 9.15099 62.4541 6.62302 66.356 6.62302Z" fill="#26447A"/>
<path d="M99.2482 0C96.1432 0 94.2747 1.31894 93.368 4.06673L83.311 34.4299L91.2522 34.4574C91.8292 34.4299 92.4887 34.1001 92.8459 33.7154L102.408 24.263C102.628 24.0707 102.573 23.9882 102.326 23.9882H101.034C100.512 23.9882 99.9902 24.1256 99.523 24.4004L93.0932 28.0825L99.2208 7.44653C99.2208 7.44653 106.475 32.4515 107.052 34.4299H115.24L105.321 4.01178C104.497 1.45633 102.408 0 99.2482 0Z" fill="#26447A"/>
<path d="M132.083 6.54058C138.321 6.54058 139.145 13.3826 139.145 13.3826L146.536 11.8438C146.536 11.8438 145.437 0.0557861 132.083 0.0557861C124.005 0.0557861 116.476 4.83695 116.476 17.4493C116.476 29.9793 123.977 34.9528 132.056 34.9528C145.108 34.9528 146.536 23.4395 146.536 23.4395L139.145 21.8458C139.145 21.8458 138.54 28.468 132.193 28.468C128.264 28.468 124.417 25.94 124.417 17.4493C124.417 9.0136 128.181 6.54058 132.083 6.54058Z" fill="#26447A"/>
<path d="M164.341 0C161.236 0 159.368 1.31894 158.461 4.06673L148.404 34.4299L156.345 34.4574C156.922 34.4299 157.554 34.1001 157.939 33.7154L167.501 24.263C167.694 24.0707 167.639 23.9882 167.419 23.9882H166.127C165.605 23.9882 165.083 24.1256 164.616 24.4004L158.186 28.0825L164.286 7.44653C164.286 7.44653 171.568 32.4515 172.145 34.4299H180.333L170.414 4.01178C169.59 1.45633 167.501 0 164.341 0Z" fill="#26447A"/>
<path d="M48.2483 34.5369C48.3856 34.5369 48.4681 34.427 48.4681 34.2896C48.4681 34.1797 48.4131 34.0973 48.3307 34.0423C44.3189 32.7509 41.2139 29.3436 40.5269 24.3426L38.631 10.9608C37.7792 4.75082 33.1903 0.519214 27.8596 0.409302H0.409142C0.29923 0.409302 0.216797 0.491731 0.216797 0.601642C0.216797 0.711554 0.271751 0.821473 0.326707 0.848951C4.33849 2.14041 7.47097 5.57516 8.15792 10.5761L10.0264 23.9579C10.9057 30.1679 15.4945 34.427 20.8253 34.5369H48.2483Z" fill="#0076BC"/>
<path d="M51.8216 57.8663C51.8216 55.9154 52.8658 54.6239 54.432 54.6239C55.4487 54.6239 56.0807 55.2284 56.4379 55.9703L55.5861 56.355C55.3388 55.8879 54.9541 55.5581 54.432 55.5581C53.5252 55.5581 52.8932 56.4374 52.8932 57.8663C52.8932 59.2952 53.5252 60.2019 54.432 60.2019C54.8991 60.2019 55.2563 59.9821 55.4762 59.7623V58.5807H54.1297V57.6739H56.4654V60.1744C55.9708 60.7515 55.2838 61.1362 54.432 61.1362C52.8658 61.1362 51.8216 59.8172 51.8216 57.8663Z" fill="#585857"/>
<path fill-rule="evenodd" clip-rule="evenodd" d="M57.454 58.7484C57.454 57.4295 58.1959 56.3578 59.4324 56.3578C60.6964 56.3578 61.3559 57.402 61.3559 58.7759V59.0507H58.4432C58.4707 59.7926 58.8828 60.3696 59.6247 60.3696C59.9819 60.3696 60.3941 60.1773 60.6689 59.875L61.136 60.4246C60.7239 60.8917 60.1468 61.139 59.5423 61.139C58.2783 61.139 57.454 60.1498 57.454 58.7484ZM59.4324 57.1272C58.718 57.1272 58.4432 57.8416 58.4157 58.3912H60.4216C60.4216 57.8142 60.1743 57.1272 59.4324 57.1272Z" fill="#585857"/>
<path d="M64.9546 61.0291V57.9241C64.9546 57.3745 64.6798 57.1822 64.2951 57.1822C63.883 57.1822 63.5258 57.4844 63.3609 57.8142V61.0291H62.3992V56.4678H63.3609V57.0723C63.6082 56.7151 64.1028 56.3578 64.6798 56.3578C65.5042 56.3578 65.8889 56.7975 65.8889 57.5944V61.0291H64.9546Z" fill="#585857"/>
<path fill-rule="evenodd" clip-rule="evenodd" d="M66.9892 58.7484C66.9892 57.4295 67.7311 56.3578 68.9676 56.3578C70.2041 56.3578 70.8636 57.402 70.8636 58.7759V59.0507H67.9509C67.9784 59.7926 68.3906 60.3696 69.16 60.3696C69.5172 60.3696 69.9019 60.1773 70.1766 59.875L70.6438 60.4246C70.2591 60.8917 69.682 61.139 69.05 61.139C67.7861 61.139 66.9892 60.1498 66.9892 58.7484ZM68.9401 57.1272C68.2257 57.1272 67.9509 57.8416 67.9509 58.3912H69.9568C69.9293 57.8142 69.682 57.1272 68.9401 57.1272Z" fill="#585857"/>
<path d="M71.9074 61.0291V56.4678H72.8691V57.1272C73.1439 56.6876 73.611 56.3578 74.1331 56.3578V57.2921C74.0599 57.2738 73.9774 57.2646 73.8858 57.2646C73.5011 57.2646 73.0615 57.5669 72.8691 57.8966V61.0291H71.9074Z" fill="#585857"/>
<path fill-rule="evenodd" clip-rule="evenodd" d="M77.4309 61.0291V60.562C77.1561 60.9467 76.689 61.139 76.2219 61.139C75.48 61.139 74.793 60.5894 74.793 59.6277C74.793 58.6385 75.48 58.1439 76.2219 58.1439C76.689 58.1439 77.1561 58.3088 77.4309 58.6935V58.034C77.4309 57.4844 77.1012 57.1547 76.5241 57.1547C76.112 57.1547 75.7273 57.3196 75.3975 57.6768L75.0129 57.0173C75.48 56.5502 76.112 56.3578 76.689 56.3578C77.6507 56.3578 78.3652 56.7975 78.3652 57.8966V61.0291H77.4309ZM77.4309 59.9849V59.298C77.2386 58.9683 76.9088 58.7759 76.5516 58.7759C76.057 58.7759 75.7548 59.1331 75.7548 59.6277C75.7548 60.1223 76.057 60.4795 76.5516 60.4795C76.9088 60.4795 77.2386 60.2872 77.4309 59.9849Z" fill="#585857"/>
<path d="M79.6835 54.7355H80.6178V61.028H79.6835V54.7355Z" fill="#585857"/>
<path fill-rule="evenodd" clip-rule="evenodd" d="M87.5408 61.028L87.1836 59.764H85.0953L84.7655 61.028H83.6115L85.5074 54.7355H86.7714L88.6674 61.028H87.5408ZM86.1669 55.8347L85.3426 58.8572H86.9912L86.1669 55.8347Z" fill="#585857"/>
<path d="M91.9381 61.0308V60.4263C91.6634 60.7835 91.1688 61.1407 90.5917 61.1407C89.7674 61.1407 89.3827 60.7011 89.3827 59.9042V56.4695H90.3444V59.5745C90.3444 60.1241 90.5917 60.3164 91.0039 60.3164C91.3886 60.3164 91.7458 60.0141 91.9381 59.6844V56.4695H92.8724V61.0308H91.9381Z" fill="#585857"/>
<path d="M94.3563 60.0116V57.2913H93.7793V56.4669H94.3563V55.2304H95.3181V56.4669H96.0874V57.2913H95.3181V59.7918C95.3181 60.1215 95.428 60.3138 95.6753 60.3138C95.8127 60.3138 95.9775 60.2314 96.0325 60.149L96.2523 60.8634C96.0874 61.0283 95.8127 61.1382 95.428 61.1382C94.7135 61.1382 94.3563 60.7535 94.3563 60.0116Z" fill="#585857"/>
<path d="M99.6313 61.028V57.8955C99.6313 57.3734 99.384 57.1811 98.9718 57.1811C98.5596 57.1811 98.2299 57.4833 98.0375 57.8131V61.028H97.0758V54.7355H98.0375V57.0712C98.2848 56.7139 98.8069 56.3567 99.384 56.3567C100.208 56.3567 100.566 56.7689 100.566 57.5658V61.028H99.6313Z" fill="#585857"/>
<path fill-rule="evenodd" clip-rule="evenodd" d="M101.664 58.7484C101.664 57.457 102.351 56.3578 103.643 56.3578C104.962 56.3578 105.649 57.457 105.649 58.7484C105.649 60.0124 104.962 61.139 103.643 61.139C102.351 61.139 101.664 60.0124 101.664 58.7484ZM104.66 58.7484C104.66 57.9241 104.357 57.1822 103.643 57.1822C102.956 57.1822 102.654 57.9241 102.654 58.7484C102.654 59.5728 102.956 60.3147 103.643 60.3147C104.357 60.3147 104.66 59.5728 104.66 58.7484Z" fill="#585857"/>
<path d="M106.721 61.0291V56.4678H107.683V57.1272C107.958 56.6876 108.425 56.3578 108.947 56.3578V57.2921C108.874 57.2738 108.792 57.2646 108.7 57.2646C108.315 57.2646 107.876 57.5669 107.683 57.8966V61.0291H106.721Z" fill="#585857"/>
<path d="M109.743 55.314C109.743 54.9843 110.018 54.7095 110.32 54.7095C110.65 54.7095 110.925 54.9843 110.925 55.314C110.925 55.6437 110.65 55.891 110.32 55.891C110.018 55.891 109.743 55.6437 109.743 55.314ZM109.853 56.4681H110.815V61.0294H109.853V56.4681Z" fill="#585857"/>
<path d="M112.301 60.0116V57.2913H111.696V56.4669H112.301V55.2304H113.262V56.4669H114.004V57.2913H113.262V59.7918C113.262 60.1215 113.345 60.3138 113.592 60.3138C113.757 60.3138 113.894 60.2314 113.977 60.149L114.197 60.8634C114.032 61.0283 113.757 61.1382 113.372 61.1382C112.63 61.1382 112.301 60.7535 112.301 60.0116Z" fill="#585857"/>
<path d="M114.992 61.9651C115.074 62.02 115.212 62.0475 115.294 62.0475C115.541 62.0475 115.706 61.9376 115.816 61.6628L116.008 61.1133L114.47 56.4695H115.486L116.503 59.9042L117.52 56.4695H118.536L116.723 61.8826C116.448 62.652 116.008 62.8719 115.376 62.8719C115.212 62.8719 114.964 62.8444 114.854 62.7894L114.992 61.9651Z" fill="#585857"/>
<path fill-rule="evenodd" clip-rule="evenodd" d="M121.285 58.7484C121.285 57.457 121.972 56.3578 123.263 56.3578C124.582 56.3578 125.269 57.457 125.269 58.7484C125.269 60.0124 124.582 61.139 123.263 61.139C121.972 61.139 121.285 60.0124 121.285 58.7484ZM124.28 58.7484C124.28 57.9241 123.95 57.1822 123.263 57.1822C122.576 57.1822 122.274 57.9241 122.274 58.7484C122.274 59.5728 122.576 60.3147 123.263 60.3147C123.95 60.3147 124.28 59.5728 124.28 58.7484Z" fill="#585857"/>
<path d="M126.532 61.0263V57.2892H125.928V56.4649H126.532V56.0527C126.532 55.146 127.027 54.6239 127.824 54.6239C128.181 54.6239 128.511 54.7338 128.758 54.9536L128.428 55.6131C128.318 55.5032 128.181 55.4208 128.016 55.4208C127.659 55.4208 127.494 55.6406 127.494 56.0527V56.4649H128.263V57.2892H127.494V61.0263H126.532Z" fill="#585857"/>
<path d="M131.176 57.8663C131.176 55.9978 132.165 54.6239 133.759 54.6239C134.858 54.6239 135.435 55.3108 135.765 56.0253L134.886 56.41C134.666 55.8879 134.281 55.5581 133.759 55.5581C132.825 55.5581 132.248 56.5199 132.248 57.8663C132.248 59.2127 132.825 60.2019 133.759 60.2019C134.309 60.2019 134.693 59.7897 134.886 59.2677L135.765 59.6524C135.435 60.3943 134.886 61.1362 133.759 61.1362C132.165 61.1362 131.176 59.7623 131.176 57.8663Z" fill="#585857"/>
<path d="M136.646 55.314C136.646 54.9843 136.92 54.7095 137.223 54.7095C137.552 54.7095 137.827 54.9843 137.827 55.314C137.827 55.6437 137.552 55.891 137.223 55.891C136.92 55.891 136.646 55.6437 136.646 55.314ZM136.755 56.4681H137.717V61.0294H136.755V56.4681Z" fill="#585857"/>
<path d="M139.998 61.0308L138.486 56.4695H139.503L140.52 59.9042L141.536 56.4695H142.553L141.014 61.0308H139.998Z" fill="#585857"/>
<path d="M143.185 55.314C143.185 54.9843 143.46 54.7095 143.79 54.7095C144.12 54.7095 144.367 54.9843 144.367 55.314C144.367 55.6437 144.12 55.891 143.79 55.891C143.46 55.891 143.185 55.6437 143.185 55.314ZM143.323 56.4681H144.257V61.0294H143.323V56.4681Z" fill="#585857"/>
<path d="M145.575 54.7355H146.536V61.028H145.575V54.7355Z" fill="#585857"/>
<path fill-rule="evenodd" clip-rule="evenodd" d="M153.433 61.028L153.076 59.764H150.988L150.658 61.028H149.504L151.4 54.7355H152.664L154.56 61.028H153.433ZM152.059 55.8347L151.235 58.8572H152.884L152.059 55.8347Z" fill="#585857"/>
<path d="M156.182 61.0308L154.671 56.4695H155.687L156.704 59.9042L157.721 56.4695H158.737L157.199 61.0308H156.182Z" fill="#585857"/>
<path d="M159.37 55.314C159.37 54.9843 159.645 54.7095 159.975 54.7095C160.304 54.7095 160.552 54.9843 160.552 55.314C160.552 55.6437 160.304 55.891 159.975 55.891C159.645 55.891 159.37 55.6437 159.37 55.314ZM159.508 56.4681H160.442V61.0294H159.508V56.4681Z" fill="#585857"/>
<path fill-rule="evenodd" clip-rule="evenodd" d="M164.15 61.0291V60.562C163.875 60.9467 163.408 61.139 162.941 61.139C162.199 61.139 161.512 60.5894 161.512 59.6277C161.512 58.6385 162.199 58.1439 162.941 58.1439C163.408 58.1439 163.875 58.3088 164.15 58.6935V58.034C164.15 57.4844 163.82 57.1547 163.243 57.1547C162.831 57.1547 162.446 57.3196 162.117 57.6768L161.732 57.0173C162.199 56.5502 162.831 56.3578 163.408 56.3578C164.37 56.3578 165.084 56.7975 165.084 57.8966V61.0291H164.15ZM164.15 59.9849V59.298C163.958 58.9683 163.628 58.7759 163.271 58.7759C162.776 58.7759 162.474 59.1331 162.474 59.6277C162.474 60.1223 162.776 60.4795 163.271 60.4795C163.628 60.4795 163.958 60.2872 164.15 59.9849Z" fill="#585857"/>
<path d="M166.569 60.0116V57.2913H165.965V56.4669H166.569V55.2304H167.531V56.4669H168.301V57.2913H167.531V59.7918C167.531 60.1215 167.641 60.3138 167.888 60.3138C168.026 60.3138 168.163 60.2314 168.246 60.149L168.465 60.8634C168.301 61.0283 168.026 61.1382 167.641 61.1382C166.927 61.1382 166.569 60.7535 166.569 60.0116Z" fill="#585857"/>
<path d="M169.151 55.314C169.151 54.9843 169.426 54.7095 169.755 54.7095C170.085 54.7095 170.36 54.9843 170.36 55.314C170.36 55.6437 170.085 55.891 169.755 55.891C169.426 55.891 169.151 55.6437 169.151 55.314ZM169.288 56.4681H170.25V61.0294H169.288V56.4681Z" fill="#585857"/>
<path fill-rule="evenodd" clip-rule="evenodd" d="M171.323 58.7484C171.323 57.457 172.009 56.3578 173.328 56.3578C174.62 56.3578 175.307 57.457 175.307 58.7484C175.307 60.0124 174.62 61.139 173.328 61.139C172.009 61.139 171.323 60.0124 171.323 58.7484ZM174.318 58.7484C174.318 57.9241 174.015 57.1822 173.328 57.1822C172.614 57.1822 172.312 57.9241 172.312 58.7484C172.312 59.5728 172.614 60.3147 173.328 60.3147C174.015 60.3147 174.318 59.5728 174.318 58.7484Z" fill="#585857"/>
<path d="M178.934 61.0291V57.9241C178.934 57.3745 178.686 57.1822 178.274 57.1822C177.862 57.1822 177.505 57.4844 177.34 57.8142V61.0291H176.378V56.4678H177.34V57.0723C177.587 56.7151 178.109 56.3578 178.686 56.3578C179.511 56.3578 179.895 56.7975 179.895 57.5944V61.0291H178.934Z" fill="#585857"/>
<path d="M119.444 43.5531C119.774 43.5531 120.021 43.3058 120.021 42.9761C120.021 42.6738 119.774 42.4265 119.444 42.4265C119.142 42.4265 118.894 42.6738 118.894 42.9761C118.894 43.3058 119.142 43.5531 119.444 43.5531Z" fill="#6C6A68"/>
<path d="M121.258 43.5531C121.587 43.5531 121.835 43.3058 121.835 42.9761C121.835 42.6738 121.587 42.4265 121.258 42.4265C120.955 42.4265 120.708 42.6738 120.708 42.9761C120.708 43.3058 120.955 43.5531 121.258 43.5531Z" fill="#6C6A68"/>
<path d="M151.84 43.5531C152.142 43.5531 152.39 43.3058 152.39 42.9761C152.39 42.6738 152.142 42.4265 151.84 42.4265C151.51 42.4265 151.263 42.6738 151.263 42.9761C151.263 43.3058 151.51 43.5531 151.84 43.5531Z" fill="#6C6A68"/>
<path d="M153.654 43.5531C153.956 43.5531 154.204 43.3058 154.204 42.9761C154.204 42.6738 153.956 42.4265 153.654 42.4265C153.324 42.4265 153.077 42.6738 153.077 42.9761C153.077 43.3058 153.324 43.5531 153.654 43.5531Z" fill="#6C6A68"/>
<path d="M163.655 44.9565C163.729 44.9565 163.811 44.9565 163.903 44.9565C164.067 44.9382 164.214 44.929 164.342 44.929C164.47 44.9107 164.571 44.9016 164.644 44.9016C164.718 44.9016 164.764 44.9016 164.782 44.9016L164.672 44.1597C164.672 44.178 164.635 44.1872 164.562 44.1872C164.48 44.1872 164.397 44.2146 164.26 44.2421C164.15 44.2604 164.012 44.2696 163.848 44.2696C163.848 44.2696 163.829 44.2696 163.793 44.2696C163.793 44.2696 163.765 44.2971 163.71 44.2696C163.674 44.2879 163.637 44.2879 163.6 44.2696C163.545 44.2513 163.5 44.2329 163.463 44.2146C163.426 44.178 163.39 44.1413 163.353 44.1047C163.316 44.0498 163.289 43.9948 163.271 43.9398C163.243 43.8025 163.271 43.6376 163.353 43.5002C163.426 43.3537 163.536 43.2621 163.683 43.2254C163.738 43.2071 163.802 43.1979 163.875 43.1979C163.948 43.1796 164.012 43.1796 164.067 43.1979C164.122 43.1979 164.205 43.2254 164.26 43.2254C164.287 43.2529 164.342 43.2529 164.37 43.2804C164.461 43.317 164.516 43.3353 164.535 43.3353L164.754 42.6484C164.754 42.6484 164.699 42.6209 164.617 42.5934C164.562 42.5659 164.48 42.566 164.397 42.5385C164.324 42.5202 164.232 42.511 164.122 42.511C164.031 42.4927 163.921 42.4927 163.793 42.511C163.683 42.5385 163.545 42.566 163.408 42.6209C163.298 42.6759 163.161 42.7583 163.051 42.8682C162.968 42.9781 162.858 43.088 162.803 43.2254C162.694 43.5002 162.666 43.8025 162.748 44.0772C162.767 44.1688 162.803 44.2513 162.858 44.3245C162.391 44.352 162.034 44.352 162.034 44.352V44.9016C162.034 44.9016 162.721 44.9291 163.38 44.9565C163.463 44.9565 163.545 44.9565 163.655 44.9565Z" fill="#585857"/>
<path d="M96.8566 50.7504C96.5543 50.7504 96.307 50.9977 96.307 51.2999C96.307 51.6297 96.5543 51.877 96.8566 51.877C97.1588 51.877 97.4336 51.6297 97.4336 51.2999C97.4336 50.9977 97.1588 50.7504 96.8566 50.7504Z" fill="#585857"/>
<path d="M98.6705 50.7504C98.3683 50.7504 98.121 50.9977 98.121 51.2999C98.121 51.6297 98.3683 51.877 98.6705 51.877C98.9728 51.877 99.2476 51.6297 99.2476 51.2999C99.2476 50.9977 98.9728 50.7504 98.6705 50.7504Z" fill="#585857"/>
<path d="M165.717 50.7504C165.415 50.7504 165.14 50.9977 165.14 51.2999C165.14 51.6297 165.415 51.877 165.717 51.877C166.019 51.877 166.266 51.6297 166.266 51.2999C166.266 50.9977 166.019 50.7504 165.717 50.7504Z" fill="#585857"/>
<path d="M167.531 50.7504C167.229 50.7504 166.954 50.9977 166.954 51.2999C166.954 51.6297 167.229 51.877 167.531 51.877C167.833 51.877 168.08 51.6297 168.08 51.2999C168.08 50.9977 167.833 50.7504 167.531 50.7504Z" fill="#585857"/>
<path d="M53.8814 51.7997C53.5792 51.7997 53.3044 52.047 53.3044 52.3767C53.3044 52.679 53.5792 52.9263 53.8814 52.9263C54.1837 52.9263 54.431 52.679 54.431 52.3767C54.431 52.047 54.1837 51.7997 53.8814 51.7997Z" fill="#585857"/>
<path d="M55.6942 51.7997C55.392 51.7997 55.1172 52.047 55.1172 52.3767C55.1172 52.679 55.392 52.9263 55.6942 52.9263C55.9965 52.9263 56.2438 52.679 56.2438 52.3767C56.2438 52.047 55.9965 51.7997 55.6942 51.7997Z" fill="#585857"/>
<path d="M86.085 45.7508C86.3873 45.7508 86.6346 45.5035 86.6346 45.2012C86.6346 44.899 86.3873 44.6517 86.085 44.6517C85.7828 44.6517 85.508 44.899 85.508 45.2012C85.508 45.5035 85.7828 45.7508 86.085 45.7508Z" fill="#585857"/>
<path d="M60.3661 44.6806C60.6958 44.6806 60.9431 44.4333 60.9431 44.1036C60.9431 43.8013 60.6958 43.554 60.3661 43.554C60.0638 43.554 59.8165 43.8013 59.8165 44.1036C59.8165 44.4333 60.0638 44.6806 60.3661 44.6806Z" fill="#585857"/>
<path d="M179.813 42.6721H178.851V49.5691H179.813V42.6721Z" fill="#585857"/>
<path d="M147.032 42.6721H146.07V49.5691H147.032V42.6721Z" fill="#585857"/>
<path d="M91.141 42.6721H90.1793V49.5691H91.141V42.6721Z" fill="#585857"/>
<path fill-rule="evenodd" clip-rule="evenodd" d="M144.476 48.1691C144.476 49.0759 143.762 49.7903 142.855 49.7903H142.47C142.434 49.7903 142.388 49.7903 142.333 49.7903C141.014 49.7903 139.933 49.6163 139.091 49.2683C138.211 49.6804 137.304 49.7903 136.178 49.7903H134.667C133.76 49.7903 133.018 49.0484 133.018 48.1416V42.6461H134.007V48.1416C134.007 48.5263 134.282 48.8011 134.667 48.8011H136.178C136.865 48.8011 137.442 48.7736 137.991 48.6362C137.918 48.5813 137.854 48.5263 137.799 48.4714C137.414 48.0867 136.535 47.125 136.727 46.3006C136.782 46.0258 136.975 45.6686 137.524 45.4763H137.579L137.634 45.4488C138.513 45.3664 139.393 45.3664 140.272 45.4763L140.327 45.5038H140.382C141.041 45.7511 141.234 46.1632 141.289 46.4655C141.454 47.4272 140.437 48.3615 140.217 48.5263C140.199 48.5447 140.171 48.563 140.135 48.5813C140.812 48.7462 141.618 48.8194 142.553 48.8011V48.8286H142.855C143.212 48.8286 143.514 48.5263 143.514 48.1691V42.6735H144.476V48.1691ZM140.327 46.6578C140.327 46.5479 140.19 46.493 140.08 46.438C139.329 46.3464 138.568 46.3373 137.799 46.4105C137.744 46.438 137.689 46.4655 137.689 46.493C137.634 46.6853 137.936 47.2349 138.486 47.757C138.633 47.9218 138.816 48.0592 139.036 48.1691C139.219 48.0592 139.402 47.931 139.585 47.7844C140.052 47.3997 140.382 46.8777 140.327 46.6578Z" fill="#585857"/>
<path fill-rule="evenodd" clip-rule="evenodd" d="M177.257 48.1677C177.257 49.0745 176.542 49.7889 175.636 49.7889L174.097 49.8439V49.8164H173.272C173.74 50.4484 173.575 50.9704 173.465 51.2452C173.163 51.8223 172.421 52.207 171.651 52.207C171.349 52.207 171.047 52.152 170.799 52.0421C169.755 51.6299 169.453 50.6957 169.453 49.8164C169.013 49.8164 168.601 49.8164 168.271 49.7889C168.088 49.7889 167.942 49.7889 167.832 49.7889H166.485V49.5416C166.238 49.7065 165.936 49.7889 165.634 49.7889H165.029C164.589 49.7889 164.177 49.624 163.902 49.3218C163.6 49.624 163.188 49.7889 162.748 49.7889H154.478C153.791 49.7889 153.214 49.3767 152.966 48.7997C152.545 48.8547 152.179 48.8821 151.867 48.8821C150.493 48.8821 149.971 48.47 149.834 48.3326C149.586 48.0578 149.504 47.7281 149.559 47.3708C149.696 46.6839 150.356 46.0519 151.51 45.5298C152.032 45.2825 152.554 45.1177 152.829 45.0352V44.5681H153.818V48.1677C153.818 48.5249 154.093 48.8272 154.478 48.8272H162.748C163.106 48.8272 163.408 48.5249 163.408 48.1677V45.7771H164.37V48.1677C164.37 48.5249 164.672 48.8272 165.029 48.8272H165.634C165.991 48.8272 166.293 48.5249 166.293 48.1677V45.7771H167.282V48.1677C167.282 48.3875 167.227 48.6073 167.117 48.8272H167.804C167.942 48.8272 168.107 48.8272 168.299 48.8272C168.574 48.8272 169.041 48.8546 169.535 48.8272C169.618 48.3875 169.728 48.0028 169.81 47.7555C169.92 47.3983 170.607 45.5298 171.734 45.5298H171.761C172.695 45.5298 173.08 46.8762 173.19 47.2884C173.41 48.0028 173.19 48.4974 172.97 48.7722C172.943 48.7997 172.915 48.8272 172.888 48.8547L175.608 48.8272C175.993 48.8272 176.295 48.5249 176.295 48.1677V42.6721H177.257V48.1677ZM152.829 47.838V46.0519C151.812 46.3816 150.631 46.9862 150.521 47.5632C150.521 47.6181 150.521 47.6456 150.521 47.6456C150.768 47.8929 151.895 47.9479 152.829 47.838ZM170.717 48.0578C170.644 48.3143 170.58 48.5524 170.525 48.7722C171.267 48.6898 171.926 48.5249 172.201 48.1677C172.283 48.0853 172.366 47.8929 172.256 47.5632C171.981 46.574 171.734 46.4915 171.734 46.4915C171.569 46.4915 171.047 47.0686 170.717 48.0578ZM171.734 49.7889L171.926 49.4592C171.459 49.624 170.937 49.7065 170.415 49.7614C170.415 50.4484 170.662 50.943 171.157 51.1353C171.734 51.3551 172.448 51.1078 172.586 50.8056C172.723 50.5583 172.366 50.1461 171.734 49.7889Z" fill="#585857"/>
<path d="M79.6834 42.6721H78.6942V49.5691H79.6834V42.6721Z" fill="#585857"/>
<path fill-rule="evenodd" clip-rule="evenodd" d="M77.1264 48.1677C77.1264 49.0745 76.3845 49.7889 75.4777 49.7889H72.8398V49.5965C72.7849 49.6149 72.7299 49.6332 72.6749 49.6515C72.4551 49.7339 72.1254 49.7889 71.7682 49.7889C71.1362 49.7889 70.4218 49.6515 69.9546 49.3493C69.6249 49.5966 69.1578 49.7889 68.4433 49.7889H63.4973V48.8272H66.5199C66.3001 47.0411 64.5964 46.1343 64.569 46.1069L65.0086 45.255C65.1185 45.31 67.2893 46.4641 67.5091 48.8272H68.4433C69.4326 48.8272 69.5425 48.4425 69.8447 47.5632C69.9546 47.2609 70.0645 46.9037 70.2294 46.574C70.6141 45.8321 71.2186 45.3924 71.8781 45.3924C72.5376 45.3924 73.1421 45.8321 73.4718 46.5465C73.7466 47.0686 73.9115 47.9479 73.6367 48.7173C73.6184 48.7539 73.6 48.7905 73.5817 48.8272H75.4777C75.8624 48.8272 76.1647 48.5249 76.1647 48.1677V42.6721H77.1264V48.1677ZM72.5925 46.9587C72.4276 46.574 72.1529 46.3542 71.8781 46.3542C71.6033 46.3542 71.3011 46.6015 71.1087 46.9861C70.9713 47.2884 70.8614 47.5907 70.7515 47.8654C70.6965 48.1036 70.6141 48.3326 70.5042 48.5524C70.8889 48.7722 71.933 48.9096 72.3452 48.7447C72.5101 48.6715 72.6383 48.5432 72.7299 48.36C72.8948 47.9204 72.7849 47.3434 72.5925 46.9587Z" fill="#585857"/>
<path fill-rule="evenodd" clip-rule="evenodd" d="M131.067 48.7153C130.874 49.1549 130.544 49.4847 130.132 49.6495C129.5 49.8968 128.126 49.8144 127.385 49.3473C127.055 49.5946 126.588 49.7869 125.873 49.7869H124.554H122.329C121.642 49.7869 121.065 49.3748 120.817 48.7977C120.396 48.8527 120.03 48.8801 119.718 48.8801C118.344 48.8801 117.822 48.468 117.685 48.3306C117.437 48.0558 117.355 47.7261 117.41 47.3689C117.575 46.6819 118.207 46.0499 119.361 45.5278C119.883 45.2805 120.405 45.1157 120.68 45.0332V44.5661H121.669V48.1657C121.669 48.5229 121.944 48.8252 122.329 48.8252H125.873C126.862 48.8252 126.972 48.4405 127.275 47.5612C127.385 47.2589 127.494 46.9017 127.687 46.572C128.044 45.8301 128.649 45.3904 129.308 45.3904C129.967 45.3904 130.572 45.8301 130.902 46.5445C131.176 47.0666 131.369 47.9459 131.067 48.7153ZM120.68 47.836V46.0499C119.663 46.3797 118.509 46.9842 118.372 47.5612C118.372 47.6436 118.372 47.6436 118.372 47.6436C118.619 47.8909 119.746 47.9459 120.68 47.836ZM130.05 46.9842C129.858 46.572 129.583 46.3522 129.308 46.3522C129.033 46.3522 128.731 46.5995 128.539 46.9842C128.401 47.2864 128.291 47.5887 128.209 47.8909C128.136 48.1108 128.053 48.3306 127.962 48.5504C128.319 48.7977 129.363 48.9076 129.775 48.7428C129.958 48.6878 130.087 48.5596 130.16 48.3581C130.325 47.9184 130.215 47.3414 130.05 46.9842Z" fill="#585857"/>
<path fill-rule="evenodd" clip-rule="evenodd" d="M114.525 48.1677C114.525 49.0745 113.783 49.7889 112.876 49.7889H112.299C111.832 49.7889 111.447 49.624 111.145 49.3218C110.843 49.624 110.431 49.7889 109.991 49.7889H97.5161V49.5416C97.2413 49.7065 96.9391 49.7889 96.6093 49.7889H94.576C94.3378 49.7889 94.1088 49.7431 93.889 49.6515C93.8615 50.888 92.8449 51.9047 91.5809 51.9047V50.9155C92.3228 50.9155 92.9273 50.311 92.9273 49.5691V45.7771H93.9165V48.1677C93.9165 48.5249 94.1913 48.8272 94.576 48.8272H96.6093C96.994 48.8272 97.2688 48.5249 97.2688 48.1677V45.7771H98.258V48.1677C98.258 48.3875 98.2031 48.6348 98.1206 48.8272H102.105V42.6721H103.067V47.3983C103.122 47.3434 103.177 47.2884 103.232 47.2335C103.561 46.9587 103.946 46.6289 104.386 46.3267C104.633 46.1893 104.88 46.0244 105.128 45.9145C105.43 45.7771 105.705 45.6672 106.034 45.6122C106.364 45.5573 106.721 45.5573 107.078 45.6947C107.161 45.7222 107.271 45.7496 107.353 45.8046C107.426 45.8596 107.5 45.9145 107.573 45.9695C107.71 46.0794 107.848 46.1893 107.93 46.3267C108.15 46.6015 108.26 46.8762 108.342 47.1235C108.397 47.2609 108.425 47.3983 108.452 47.5082C108.48 47.6456 108.507 47.7555 108.507 47.8654C108.526 47.9754 108.544 48.0761 108.562 48.1677C108.562 48.2776 108.571 48.3784 108.59 48.47C108.59 48.5524 108.59 48.6348 108.59 48.7173C108.59 48.7539 108.599 48.7905 108.617 48.8272H109.991C110.376 48.8272 110.651 48.5249 110.651 48.1677V42.6721H111.64V48.1677C111.64 48.5249 111.942 48.8272 112.299 48.8272H112.876C113.261 48.8272 113.563 48.5249 113.563 48.1677V42.6721H114.525V48.1677ZM103.067 48.8272H107.628C107.61 48.7905 107.601 48.7631 107.601 48.7447C107.601 48.6898 107.601 48.6074 107.601 48.5249C107.582 48.4516 107.573 48.3784 107.573 48.3051C107.555 48.2135 107.536 48.1219 107.518 48.0303C107.518 47.9204 107.491 47.838 107.463 47.7281C107.436 47.6456 107.408 47.5357 107.381 47.4533C107.362 47.4166 107.344 47.3708 107.326 47.3159L107.298 47.2335C107.298 47.2151 107.289 47.1968 107.271 47.1785C107.243 47.1235 107.243 47.0961 107.216 47.0411C107.188 47.0136 107.161 46.9587 107.133 46.9312C107.078 46.8488 107.023 46.7938 106.969 46.7389C106.932 46.7022 106.895 46.6747 106.859 46.6564C106.831 46.6564 106.776 46.6289 106.749 46.6015C106.584 46.5465 106.391 46.5465 106.199 46.574C105.979 46.6015 105.732 46.6839 105.512 46.7663C105.292 46.8488 105.073 46.9587 104.88 47.0961C104.66 47.206 104.468 47.3434 104.276 47.4808C104.083 47.5907 103.918 47.7281 103.781 47.838C103.479 48.0853 103.232 48.3051 103.067 48.47V48.8272Z" fill="#585857"/>
<path d="M62.343 45.7777H61.3538V48.1683C61.3538 48.5255 61.079 48.8278 60.6944 48.8278H60.2547C59.8975 48.8278 59.5678 48.5255 59.5678 48.1683V46.8769C59.5678 46.4647 59.4029 46.1075 59.1281 45.8876C58.7984 45.6403 58.3312 45.5304 57.8366 45.6678C56.9299 45.8602 56.2704 46.6296 56.2704 47.4539V49.6796C56.2704 49.9544 56.0231 50.1193 55.8308 50.2017C55.1713 50.4765 54.0722 50.3665 53.4127 49.7346C52.7807 49.13 52.6983 48.1408 53.1654 46.9318L52.2586 46.5746C51.4343 48.7179 52.2037 49.9269 52.7258 50.449C53.3852 51.0535 54.237 51.3283 55.0339 51.3283C55.4735 51.3283 55.8857 51.2459 56.2154 51.081C56.8749 50.8062 57.2321 50.3116 57.2321 49.6796V47.4539C57.2321 47.0692 57.5893 46.712 58.0565 46.6021C58.2763 46.5471 58.4412 46.6021 58.5236 46.657C58.5511 46.657 58.606 46.712 58.606 46.8769V48.1683C58.606 49.0476 59.3754 49.7895 60.2547 49.7895H60.6944C61.6011 49.7895 62.343 49.0751 62.343 48.1683V45.7777Z" fill="#585857"/>
<path d="M88.7226 45.7791H87.7334V49.681C87.7334 49.9558 87.4861 50.1206 87.2938 50.2031C86.6618 50.4778 85.5352 50.3679 84.8757 49.7359C84.2437 49.1314 84.1613 48.1422 84.6559 46.9332L83.7216 46.576C82.8973 48.7192 83.6667 49.9283 84.2162 50.4504C84.8482 51.0549 85.7275 51.3297 86.4969 51.3297C86.9365 51.3297 87.3487 51.2472 87.6784 51.0824C88.3379 50.8076 88.7226 50.313 88.7226 49.681V45.7791Z" fill="#585857"/>
<path d="M31.6781 22.9414L30.4416 22.9139C30.3042 22.9139 30.0569 22.9414 29.9195 23.0238L14.944 28.7117C14.8341 28.7667 14.8341 28.7942 14.9715 28.7942L19.8626 28.8216C20.4396 28.8216 20.8518 28.8216 21.4288 28.4919L31.7056 23.0513C31.8155 22.9963 31.8155 22.9414 31.6781 22.9414Z" fill="white"/>
<path d="M21.4839 22.9182L24.479 24.0997L22.9127 24.7043L19.6703 22.9731C19.5604 22.8907 19.5604 22.8632 19.6978 22.8632L20.9618 22.8358C21.0992 22.8358 21.319 22.8632 21.4839 22.9182Z" fill="white"/>
<path d="M36.5705 28.8007L31.6795 28.8282C31.075 28.8282 30.6903 28.8282 30.0858 28.4985L26.7609 26.7399L28.6844 25.7232L36.5705 28.7183C36.7079 28.7733 36.7079 28.8007 36.5705 28.8007Z" fill="white"/>
<path d="M25.7709 22.1765C25.2213 22.1765 24.6992 17.8625 24.5893 12.3394C24.3145 12.4218 24.0123 12.5043 23.8199 12.5867C22.2262 13.0813 20.1928 13.9881 18.9563 14.73C18.9289 14.7575 18.8739 14.73 18.8464 14.7025C18.8281 14.7025 18.8281 14.6934 18.8464 14.675C18.764 14.0705 18.8464 13.521 19.3136 13.0813C19.7532 12.6417 20.3302 12.2295 20.8798 11.8998C21.5667 11.4601 22.2537 11.048 22.9956 10.7182C23.1879 10.6083 23.4352 10.4984 23.6276 10.416C22.3911 9.70153 20.8798 9.09701 19.7807 8.7398C19.7532 8.7398 19.7257 8.71233 19.7532 8.68485C19.7532 8.66653 19.7532 8.65737 19.7532 8.65737C20.1104 8.30016 20.5226 8.08034 21.0172 8.13529C21.4294 8.16277 21.869 8.27268 22.3087 8.38259C22.7849 8.51082 23.2521 8.64821 23.71 8.79476C23.9665 8.86803 24.2229 8.95963 24.4794 9.06954C24.516 9.08786 24.5618 9.10617 24.6168 9.12449C24.7817 7.6132 25.2213 6.54156 25.7709 6.54156C26.293 6.54156 26.7601 7.6132 26.9249 9.12449C26.9616 9.10617 27.0074 9.08786 27.0623 9.06954C27.3188 8.95963 27.5753 8.86803 27.8317 8.79476C28.2897 8.64821 28.7568 8.51082 29.2331 8.38259C29.6453 8.27268 30.0849 8.16277 30.5246 8.13529C31.0192 8.08034 31.4313 8.30016 31.7611 8.65737C31.7794 8.65737 31.7885 8.66653 31.7885 8.68485C31.7885 8.71233 31.7885 8.7398 31.7336 8.7398C30.6619 9.09701 29.1232 9.70153 27.8867 10.416C28.079 10.4984 28.3263 10.6083 28.5187 10.7182C29.2606 11.048 29.975 11.4601 30.6619 11.8998C31.184 12.2295 31.7611 12.6417 32.2282 13.0813C32.6678 13.521 32.7777 14.0705 32.6953 14.675C32.6953 14.6934 32.6953 14.7025 32.6953 14.7025C32.6678 14.73 32.6129 14.7575 32.5854 14.73C31.3489 13.9881 29.3155 13.0813 27.7218 12.5867C27.502 12.5043 27.2272 12.4218 26.9524 12.3394C26.815 17.8625 26.293 22.1765 25.7709 22.1765Z" fill="white"/>
</svg>
